<svg xmlns="http://www.w3.org/2000/svg" version="1.1" xmlns:xlink="http://www.w3.org/1999/xlink" xmlns:svgjs="http://svgjs.dev/svgjs" width="1000" height="1000" viewBox="0 0 1000 1000"><rect width="1000" height="1000" fill="#ffffff"></rect><g transform="matrix(0.7,0,0,0.7,149.57576036200828,454.87151761129184)"><svg viewBox="0 0 396 51" data-background-color="#006aa1" preserveAspectRatio="xMidYMid meet" height="128" width="1000" xmlns="http://www.w3.org/2000/svg" xmlns:xlink="http://www.w3.org/1999/xlink"><g id="tight-bounds" transform="matrix(1,0,0,1,0.23999849766357784,0.18697336667059972)"><svg viewBox="0 0 395.52 50.626055630828084" height="50.626055630828084" width="395.52"><g><svg viewBox="0 0 395.52 50.626055630828084" height="50.626055630828084" width="395.52"><g><svg viewBox="0 0 395.52 50.626055630828084" height="50.626055630828084" width="395.52"><g><svg viewBox="0 0 395.52 50.626055630828084" height="50.626055630828084" width="395.52"><g><svg viewBox="0 0 395.52 50.626055630828084" height="50.626055630828084" width="395.52"><g transform="matrix(1,0,0,1,0,0)"><svg width="395.52" viewBox="5.440000057220459 -38.66999816894531 306.30999755859375 39.209999084472656" height="50.626055630828084" data-palette-color="#cfc3c0"><g class="undefined-text-0" data-fill-palette-color="primary" id="text-0"><path d="M5.44 0L5.44-38.16 13.18-38.16 27.05-24.24 40.92-38.16 48.66-38.16 48.66 0 40.92 0 40.92-27.44 27.05-14.09 13.18-27.44 13.18 0 5.44 0ZM57.27-19.19L57.27-19.19Q57.27-23.51 58.86-27.1 60.45-30.69 63.32-33.26 66.18-35.84 70.2-37.26 74.22-38.67 79.1-38.67L79.1-38.67Q83.96-38.67 87.99-37.26 92.01-35.84 94.88-33.26 97.75-30.69 99.34-27.1 100.93-23.51 100.93-19.19L100.93-19.19Q100.93-14.84 99.34-11.22 97.75-7.59 94.88-4.98 92.01-2.37 87.99-0.92 83.96 0.54 79.1 0.54L79.1 0.54Q74.22 0.54 70.2-0.92 66.18-2.37 63.32-4.98 60.45-7.59 58.86-11.22 57.27-14.84 57.27-19.19ZM65.01-19.19L65.01-19.19Q65.01-16.24 66.07-13.87 67.14-11.5 69.03-9.83 70.92-8.15 73.5-7.25 76.07-6.35 79.1-6.35L79.1-6.35Q82.13-6.35 84.7-7.25 87.28-8.15 89.16-9.83 91.04-11.5 92.11-13.87 93.19-16.24 93.19-19.19L93.19-19.19Q93.19-22.14 92.11-24.49 91.04-26.83 89.16-28.45 87.28-30.08 84.7-30.93 82.13-31.79 79.1-31.79L79.1-31.79Q76.07-31.79 73.5-30.93 70.92-30.08 69.03-28.45 67.14-26.83 66.07-24.49 65.01-22.14 65.01-19.19ZM121.14 0L104.41-38.16 112.98-38.16 124.97-9.06 136.96-38.16 145.53-38.16 128.8 0 121.14 0ZM150.29 0L150.29-38.16 158.07-38.16 158.07 0 150.29 0ZM167.93 0L167.93-38.16 200.43-38.16 200.43-31.37 175.67-31.37 175.67-23.75 197.6-23.75 197.6-17.38 175.67-17.38 175.67-6.76 200.94-6.76 200.94 0 167.93 0ZM209.53 0L209.53-38.16 229.92-38.16Q233.65-38.16 236.43-37.37 239.2-36.57 241.03-35.18 242.86-33.79 243.75-31.87 244.64-29.96 244.64-27.73L244.64-27.73Q244.64-24.1 242.35-21.36L242.35-21.36Q244.98-19.8 246.28-17.31 247.57-14.82 247.57-11.65L247.57-11.65Q247.57-8.98 246.68-6.84 245.79-4.69 243.97-3.16 242.15-1.64 239.38-0.82 236.61 0 232.85 0L232.85 0 209.53 0ZM217.27-23.51L232.9-23.51Q233.9-23.51 234.85-23.44L234.85-23.44Q236.49-25 236.49-27L236.49-27Q236.49-29.08 234.86-30.21 233.24-31.35 230.11-31.35L230.11-31.35 217.27-31.35 217.27-23.51ZM217.27-6.74L233.04-6.74Q236.17-6.74 237.79-8.08 239.42-9.42 239.42-11.87L239.42-11.87Q239.42-14.31 237.79-15.67 236.17-17.04 233.04-17.04L233.04-17.04 217.27-17.04 217.27-6.74ZM254.43 0L254.43-38.16 262.22-38.16 262.22 0 254.43 0ZM267.17 0L285.09-38.16 293.29-38.16 311.75 0 303.62 0 300.57-6.42 278.28-6.42 275.32 0 267.17 0ZM281.23-12.79L297.52-12.79 289.26-30.13 281.23-12.79Z" fill="#000000" data-fill-palette-color="primary"></path></g></svg></g></svg></g></svg></g></svg></g></svg></g><defs></defs></svg><rect width="395.52" height="50.626055630828084" fill="none" stroke="none" visibility="hidden"></rect></g></svg></g></svg>